# AST/ASF file generated using VICON BodyLanguage
# -----------------------------------------------
:version 1.10
:name VICON
:units
  mass 1.0
  length 0.45
  angle deg
:documentation
   .ast/.asf automatically generated from VICON data using
   VICON BodyBuilder and BodyLanguage model FoxedUp or BRILLIANT.MOD
:root
   order TX TY TZ RX RY RZ
   axis XYZ
   position 0 0 0  
   orientation 0 -0 0 
:bonedata
  begin
     id 1 
     name lhipjoint
     direction 0.500677 -0.737119 0.453848 
     length 2.34727 
     axis 0 -0 0  XYZ
  end
  begin
     id 2 
     name lfemur
     direction 0.34202 -0.939693 0  
     length 7.53653  
     axis 0 -0 20  XYZ
    dof rx ry rz
    limits (-160.0 20.0)
           (-70.0 70.0)
           (-60.0 70.0)
  end
  begin
     id 3 
     name ltibia
     direction 0.34202 -0.939693 0   
     length 6.85572   
     axis 0 -0 20   XYZ
    dof rx
    limits (-10.0 170.0)
  end
  begin
     id 4 
     name lfoot
     direction 0.155313 -0.426718 0.890949   
     length 2.18324   
     axis -90 -1.13533e-015 20   XYZ
    dof rx rz
    limits (-45.0 90.0)
           (-70.0 20.0)
  end
  begin
     id 5 
     name ltoes
     direction 1.53474e-011 -4.21647e-011 1   
     length 1.06748   
     axis -90 -1.13533e-015 20   XYZ
    dof rx
    limits (-90.0 20.0)
  end
  begin
     id 6 
     name rhipjoint
     direction -0.632471 -0.659587 0.406111   
     length 2.62319  
     axis 0 -0 0  XYZ 
  end
  begin
     id 7 
     name rfemur
     direction -0.34202 -0.939693 0   
     length 7.21735   
     axis 0 -0 -20   XYZ
    dof rx ry rz
    limits (-160.0 20.0)
           (-70.0 70.0)
           (-70.0 60.0)
  end
  begin
     id 8 
     name rtibia
     direction -0.34202 -0.939693 0   
     length 7.02558   
     axis 0 -0 -20   XYZ
    dof rx
    limits (-10.0 170.0)
 end
 begin
     id 9 
     name rfoot
     direction -0.16057 -0.441164 0.882945   
     length 2.10014  
     axis -90 1.13533e-015 -20   XYZ
    dof rx rz
    limits (-45.0 90.0)
           (-20.0 70.0)
  end
  begin
     id 10 
     name rtoes
     direction -1.53553e-011 -4.2192e-011 1   
     length 1.02554   
     axis -90 1.13533e-015 -20   XYZ
    dof rx
    limits (-90.0 20.0)
  end
  begin
     id 11 
     name lowerback
     direction 0.0401429 0.998861 -0.0258085   
     length 1.80848   
     axis 0 -0 0   XYZ
    dof rx ry rz
    limits (-20.0 45.0)
           (-30.0 30.0)
           (-30.0 30.0)
  end
  begin
     id 12 
     name upperback
     direction -0.0130978 0.999914 -0.000352645   
     length 1.8116   
     axis 0 -0 0   XYZ
    dof rx ry rz
    limits (-20.0 45.0)
           (-30.0 30.0)
           (-30.0 30.0)
  end
  begin
     id 13 
     name thorax
     direction -0.0300198 0.999453 0.0138573   
     length 1.81778   
     axis 0 -0 0   XYZ
    dof rx ry rz
    limits (-20.0 45.0)
           (-30.0 30.0)
           (-30.0 30.0)
  end
  begin
     id 14 
     name lowerneck
     direction -0.0401726 0.999191 -0.00173647   
     length 2.10594   
     axis 0 -0 0   XYZ
    dof rx ry rz
    limits (-20.0 45.0)
           (-30.0 30.0)
           (-30.0 30.0)
  end
  begin
     id 15 
     name upperneck
     direction 0.0119835 0.998501 0.0534085   
     length 2.07325   
     axis 0 -0 0   XYZ
    dof rx ry rz
    limits (-20.0 45.0)
           (-30.0 30.0)
           (-30.0 30.0)
  end
  begin
     id 16
     name head
     direction 0.00628309 0.999826 0.0175921  
     length 2.15096  
     axis 0 -0 0   XYZ
    dof rx ry rz
    limits (-20.0 45.0)
           (-30.0 30.0)
           (-30.0 30.0)
  end
  begin
     id 17 
     name lclavicle
     direction 0.895501 0.429681 -0.115981  
     length 4.18092  
     axis 0 -0 0   XYZ
    dof ry rz
    limits (-20.0 10.0)
           (0.0 20.0)
  end
  begin
     id 18 
     name lhumerus
     direction 1 -4.48961e-011 -3.38433e-028   
     length 5.77237   
     axis 180 -30 -90   XYZ
    dof rx ry rz
    limits (-60.0 90.0)
           (-90.0 90.0)
           (-90.0 90.0)
  end
  begin
     id 19
     name lradius
     direction 1 -4.4901e-011 1.11983e-026   
     length 2.91878   
     axis 180 -30 -90   XYZ
    dof rx
    limits (-10.0 170.0)
  end
  begin
     id 20
     name lwrist
     direction 1 -4.48934e-011 1.88176e-026   
     length 1.45939   
     axis -1.23311e-014 90 90   XYZ
    dof ry
    limits (-180.0 0.0)
 end
  begin
     id 21 
     name lhand
     direction 1 -4.4895e-011 3.76352e-026   
     length 1.06566   
     axis -2.40147e-014 90 90   XYZ
    dof rx rz
    limits (-90.0 90.0)
           (-45.0 45.0)
  end
  begin
     id 22 
     name lfingers
     direction 1 -4.49005e-011 7.52705e-026   
     length 0.859162   
     axis -4.80295e-014 90 90   XYZ
    dof rx
    limits (0.0 90.0)
  end
  begin
     id 23
     name lthumb
     direction 0.707107 -6.34885e-011 0.707107   
     length 1.23359   
     axis -90 45 -9.86935e-015   XYZ
    dof rx rz
    limits (-45.0 45.0)
           (-45.0 45.0)
  end
  begin
     id 24 
     name rclavicle
     direction -0.91006 0.40451 -0.0903492   
     length 4.23293  
     axis 0 -0 0   XYZ 
    dof ry rz
    limits (-10.0 20.0)
           (-20.0 0.0)
  end
  begin
     id 25 
     name rhumerus
     direction -1 -4.4897e-011 1.7415e-027  
     length 5.49854   
     axis 180 30 90   XYZ
    dof rx ry rz
    limits (-90.0 60.0)
           (-90.0 90.0)
           (-90.0 90.0)
  end
  begin
     id 26 
     name rradius
     direction -1 -4.48963e-011 1.21259e-026   
     length 3.1186   
     axis 180 30 90   XYZ
    dof rx
    limits (-10.0 170.0)
  end
  begin
     id 27 
     name rwrist
     direction -1 -4.48967e-011 1.88176e-026   
     length 1.5593   
     axis -1.23311e-014 -90 -90   XYZ
    dof ry
    limits (-180.0 0.0)
  end
  begin
     id 28
     name rhand
     direction -1 -4.4895e-011 3.76352e-026   
     length 0.71207   
     axis -2.40147e-014 -90 -90   XYZ
    dof rx rz
    limits (-90.0 90.0)
           (-45.0 45.0)
  end
  begin
     id 29
     name rfingers
     direction -1 -4.49005e-011 7.52705e-026   
     length 0.574089   
     axis -4.80295e-014 -90 -90   XYZ
    dof rx
    limits (0.0 90.0)
  end
  begin
     id 30
     name rthumb
     direction -0.707107 -6.34982e-011 0.707107   
     length 0.824281   
     axis -90 -45 9.86935e-015   XYZ
    dof rx rz
    limits (-45.0 45.0)
           (-45.0 45.0)
  end
:hierarchy
  begin
    root lhipjoint rhipjoint lowerback
    lhipjoint lfemur
    lfemur ltibia
    ltibia lfoot
    lfoot ltoes
    rhipjoint rfemur
    rfemur rtibia
    rtibia rfoot
    rfoot rtoes
    lowerback upperback
    upperback thorax
    thorax lowerneck lclavicle rclavicle
    lowerneck upperneck
    upperneck head
    lclavicle lhumerus
    lhumerus lradius
    lradius lwrist
    lwrist lhand lthumb
    lhand lfingers
    rclavicle rhumerus
    rhumerus rradius
    rradius rwrist
    rwrist rhand rthumb
    rhand rfingers
  end

#!OML:ASF C:\ViconDB\ViconDB\414\Spring2016\042216\male.ASF
:FULLY-SPECIFIED
:DEGREES
154
root -44.7675 16.9977 13.5837 -167.825 85.1137 -168.285
lowerback -3.29377 -1.62363 4.4374
upperback -0.0617003 -2.31718 -0.726827
thorax 1.57707 -1.12073 -3.33898
lowerneck -1.96539 6.08101 -1.34401
upperneck 4.29651 8.28091 -1.79514
head 1.68598 4.08639 -0.164232
rclavicle 7.21216e-014 1.59028e-015
rhumerus -31.0419 -6.36823 -91.9979
rradius 26.9434
rwrist 38.7259
rhand 8.2343 -20.7649
rfingers 7.12502
rthumb 33.4498 -47.6691
lclavicle 7.21216e-014 1.59028e-015
lhumerus -36.3973 15.8705 86.253
lradius 31.9401
lwrist -15.479
lhand -3.37177 12.9279
lfingers 7.12502
lthumb 22.3571 41.6543
rfemur -10.666 0.637421 20.467
rtibia 28.0419
rfoot -19.5344 -0.52985
rtoes -6.08113
lfemur -9.58644 -3.52451 -18.5663
ltibia 28.281
lfoot -27.8706 9.23141
ltoes -15.7271
155
root -44.7677 16.9979 13.5802 -167.824 85.1235 -168.311
lowerback -3.31662 -1.63407 4.46204
upperback -0.0565722 -2.33306 -0.736473
thorax 1.59237 -1.12798 -3.36431
lowerneck -2.06836 6.1129 -1.19258
upperneck 4.35739 8.33239 -1.99424
head 1.74022 4.109 -0.243193
rclavicle 1.94592e-015 5.76476e-015
rhumerus -30.9448 -6.30417 -92.0903
rradius 26.874
rwrist 39.2316
rhand 8.0206 -21.1609
rfingers 7.12502
rthumb 33.2466 -48.1088
lclavicle 1.94592e-015 5.76476e-015
lhumerus -36.3358 15.6781 86.4418
lradius 31.8277
lwrist -15.6293
lhand -3.31949 12.7659
lfingers 7.12502
lthumb 22.4073 41.4862
rfemur -10.691 0.571513 20.4473
rtibia 28.043
rfoot -19.4898 -0.478517
rtoes -6.37313
lfemur -9.60981 -3.49688 -18.5811
ltibia 28.2767
lfoot -27.8659 9.20653
ltoes -15.6211
156
root -44.768 16.9979 13.5774 -167.832 85.1449 -168.317
lowerback -3.29868 -1.64249 4.45402
upperback -0.0445022 -2.34363 -0.726685
thorax 1.59452 -1.13311 -3.34973
lowerneck -2.05999 6.17105 -1.20727
upperneck 4.27476 8.41046 -2.04863
head 1.71447 4.14773 -0.257762
rclavicle 4.91775e-014 -3.8763e-015
rhumerus -30.8505 -6.19599 -92.1727
rradius 26.8502
rwrist 39.554
rhand 8.08376 -21.2672
rfingers 7.12502
rthumb 33.3067 -48.2022
lclavicle 4.91775e-014 -3.8763e-015
lhumerus -36.2867 15.496 86.6362
lradius 31.8197
lwrist -15.3961
lhand -2.73928 12.5686
lfingers 7.12502
lthumb 22.9642 41.2208
rfemur -10.6865 0.591333 20.4321
rtibia 28.0433
rfoot -19.5319 -0.496373
rtoes -6.19526
lfemur -9.59178 -3.52094 -18.5977
ltibia 28.2702
lfoot -27.8817 9.25312
ltoes -15.7453
157
root -44.7681 16.9985 13.5748 -167.57 85.1713 -168.078
lowerback -3.30145 -1.64611 4.47774
upperback -0.0480138 -2.3495 -0.719141
thorax 1.59131 -1.13601 -3.3555
lowerneck -2.00054 6.25004 -1.26975
upperneck 4.16484 8.51238 -2.03044
head 1.6654 4.19985 -0.244515
rclavicle -9.8212e-015 -1.09332e-015
rhumerus -30.7364 -6.00965 -92.3021
rradius 26.881
rwrist 39.217
rhand 8.1652 -21.3388
rfingers 7.12502
rthumb 33.3841 -48.2571
lclavicle -9.8212e-015 -1.09332e-015
lhumerus -36.2471 15.2296 86.8688
lradius 31.82
lwrist -15.0189
lhand -2.87214 12.6751
lfingers 7.12502
lthumb 22.8367 41.3431
rfemur -10.7188 0.573342 20.4367
rtibia 28.0374
rfoot -19.5031 -0.449171
rtoes -6.23027
lfemur -9.60638 -3.58602 -18.5913
ltibia 28.2653
lfoot -27.8931 9.42546
ltoes -16.1
158
root -44.7669 17.0003 13.5719 -167.117 85.197 -167.636
lowerback -3.30335 -1.64884 4.49558
upperback -0.046867 -2.35436 -0.690736
thorax 1.5936 -1.13826 -3.33648
lowerneck -1.98117 6.30165 -1.24801
upperneck 4.09164 8.58293 -2.13203
head 1.64488 4.23464 -0.279683
rclavicle 3.6317e-014 4.67144e-015
rhumerus -30.671 -5.92259 -92.34
rradius 26.9058
rwrist 39.533
rhand 8.38374 -20.7459
rfingers 7.12502
rthumb 33.5918 -47.6193
lclavicle 3.6317e-014 4.67144e-015
lhumerus -36.2282 15.0687 87.0572
lradius 31.8311
lwrist -14.9014
lhand -3.52479 12.7993
lfingers 7.12502
lthumb 22.2102 41.5432
rfemur -10.7394 0.531204 20.4602
rtibia 28.0379
rfoot -19.5152 -0.387104
rtoes -6.29452
lfemur -9.61139 -3.46525 -18.5637
ltibia 28.2565
lfoot -27.9074 9.26722
ltoes -15.7547
159
root -44.7675 16.9998 13.5693 -166.853 85.2157 -167.372
lowerback -3.27583 -1.65335 4.507
upperback -0.0400259 -2.36001 -0.669162
thorax 1.58517 -1.14115 -3.31998
lowerneck -2.00073 6.33942 -1.20335
upperneck 4.04653 8.63728 -2.2619
head 1.6427 4.2605 -0.325436
rclavicle 8.56482e-015 2.03754e-015
rhumerus -30.5728 -5.79909 -92.4261
rradius 26.9959
rwrist 39.5008
rhand 8.68184 -19.8442
rfingers 7.12502
rthumb 33.8751 -46.6556
lclavicle 8.56482e-015 2.03754e-015
lhumerus -36.1987 15.0353 87.1561
lradius 31.858
lwrist -14.8605
lhand -4.38939 12.9847
lfingers 7.12502
lthumb 21.38 41.8252
rfemur -10.7353 0.648485 20.475
rtibia 28.0346
rfoot -19.5256 -0.480936
rtoes -6.27035
lfemur -9.60988 -3.4327 -18.5502
ltibia 28.2484
lfoot -27.9089 9.30563
ltoes -16.0374
160
root -44.7679 16.998 13.5673 -166.737 85.2551 -167.258
lowerback -3.24048 -1.65868 4.51335
upperback -0.0375506 -2.36577 -0.667389
thorax 1.5672 -1.14442 -3.32069
lowerneck -2.00205 6.38785 -1.14918
upperneck 3.98081 8.70308 -2.36892
head 1.63023 4.29299 -0.366588
rclavicle 2.68111e-014 -3.72721e-015
rhumerus -30.5211 -5.64859 -92.5665
rradius 27.0618
rwrist 39.969
rhand 9.54869 -19.6602
rfingers 7.12502
rthumb 34.6982 -46.2862
lclavicle 2.68111e-014 -3.72721e-015
lhumerus -36.1878 15.0262 87.2018
lradius 31.8231
lwrist -15.27
lhand -4.70226 13.0151
lfingers 7.12502
lthumb 21.0795 41.8893
rfemur -10.7296 0.67623 20.4689
rtibia 28.0131
rfoot -19.4708 -0.474568
rtoes -6.30284
lfemur -9.6187 -3.40368 -18.5525
ltibia 28.2629
lfoot -27.8953 9.29403
ltoes -15.8126
